<svg width="621" height="244" viewBox="0 0 621 244" fill="none" xmlns="http://www.w3.org/2000/svg">
<path d="M28.1317 55.2131V70.1596H85.3807V96.8855H28.1317V240H0V54.8738C0 21.022 19.697 0 51.3997 0H90.2444V26.0311H54.179C42.3026 26.0311 28.1317 31.0887 28.1317 55.2131Z" fill="#1E1854"/>
<path d="M139.899 0H111.783V240H139.899V0Z" fill="#1E1854"/>
<path d="M620.06 69.4648L552.469 234.312C550.967 237.98 547.444 240.339 543.485 240.339C539.527 240.339 536.053 238.013 534.534 234.409L485.848 119.103L437.099 234.571C435.612 238.077 432.203 240.339 428.389 240.339C424.576 240.339 421.102 238.029 419.648 234.474L351.977 69.4648H382.597L429.973 188.439L477.22 75.4434C478.739 71.8078 482.261 69.4648 486.188 69.4648C490.114 69.4648 493.653 71.8078 495.172 75.4596L542.758 189.796L590.49 69.4648H620.06Z" fill="#1E1854"/>
<path d="M258.776 65.5859C208.201 65.6021 170.051 103.784 169.873 154.505C170.051 205.226 208.201 243.409 258.776 243.425C309.352 243.409 347.502 205.226 347.68 154.505C347.502 103.784 309.352 65.6021 258.776 65.5859ZM258.776 215.988C219.334 215.972 198.683 185.061 198.683 154.505C198.683 123.95 219.334 93.039 258.776 93.0228C298.219 93.0228 318.869 123.95 318.869 154.505C318.869 185.061 298.219 215.972 258.776 215.988Z" fill="#1E1854"/>
</svg>
